<svg xmlns="http://www.w3.org/2000/svg" viewBox="0 0 63.15 12.45"><g id="Camada_2" data-name="Camada 2"><g id="Camada_1-2" data-name="Camada 1"><path d="M62.92,10.08a31.13,31.13,0,0,1-2.06-8.72A1.39,1.39,0,0,0,60.28.13,1.67,1.67,0,0,0,59.61,0H56.42a1.8,1.8,0,0,0-1.21.39,1.56,1.56,0,0,0-.48.92,7.12,7.12,0,0,0-.14,1.35A24.17,24.17,0,0,1,53.39,9c-.11.32-.22.64-.34,1a2.52,2.52,0,0,0-.25,1,1,1,0,0,0,.59.9,2,2,0,0,0,.36.17l.19.06a5.35,5.35,0,0,0,1.48.21,2.09,2.09,0,0,0,1.55-.4.63.63,0,0,0,.15-.41,2.41,2.41,0,0,0-.07-.53,5.14,5.14,0,0,1-.08-.78,2.41,2.41,0,0,1,.44-1.59.66.66,0,0,1,.53-.24.62.62,0,0,1,.42.19,1,1,0,0,1,.23.38,2,2,0,0,1,.12.69,6.64,6.64,0,0,1-.07.87,5.65,5.65,0,0,0-.07.93.91.91,0,0,0,.15.49.78.78,0,0,0,.45.25,2.89,2.89,0,0,0,.5,0,17,17,0,0,0,2.2-.18,1.71,1.71,0,0,0,1.05-.39.88.88,0,0,0,.23-.62A2.38,2.38,0,0,0,62.92,10.08ZM58.27,4.85a.45.45,0,0,1-.37.28.54.54,0,0,1-.34-.2.85.85,0,0,1-.18-.59V4.2A3.58,3.58,0,0,1,58,2.55a3.73,3.73,0,0,1,.42,1.72A1.31,1.31,0,0,1,58.27,4.85Z"/><path d="M10.32,7.43l-1,.26a2.13,2.13,0,0,1,.46.44,1.07,1.07,0,0,1,.24.66.91.91,0,0,1-.11.42.74.74,0,0,1-.66.37.61.61,0,0,1-.58-.4A.8.8,0,0,1,8.59,9a.57.57,0,0,1,.16-.37.73.73,0,0,0,.19-.41A.25.25,0,0,0,8.88,8a.53.53,0,0,0-.2-.16L8,8c-.41.1-.83.2-1.24.28s-.34.11-.4.4c-.12.54-.24,1.07-.37,1.62l-.18.73a4,4,0,0,0,.83.69,5,5,0,0,0,2.58.71,5.28,5.28,0,0,0,1-.1,4.7,4.7,0,0,0,2.65-1.57,4.59,4.59,0,0,0,.33-.44,3.78,3.78,0,0,0,.59-2A3.11,3.11,0,0,0,13,6.18a3.3,3.3,0,0,0-.52-.45A5.33,5.33,0,0,0,11.1,5l-.39-.14C9.31,4.43,8.6,3.81,8.57,3a1,1,0,0,1,.3-.73A.92.92,0,0,1,9.56,2a.64.64,0,0,1,.63.37.39.39,0,0,1,0,.18A.41.41,0,0,1,10,2.9q-.42.21-.42.45c0,.2.16.4.47.61a3.18,3.18,0,0,0,.81.39,2.33,2.33,0,0,0,.7.13h.15a2,2,0,0,0,1-.46,1.9,1.9,0,0,0,.59-.92,1.51,1.51,0,0,0,.07-.37,2.34,2.34,0,0,0-.85-1.8A4.12,4.12,0,0,0,10.19,0a5.49,5.49,0,0,0-.58,0A6,6,0,0,0,7.88.26,4.69,4.69,0,0,0,5.94,1.43a4.69,4.69,0,0,0-.38.49l.14.54a.09.09,0,0,1,0,0c0,.11.06.23.08.34.19.74.38,1.52.53,2.28.07.34.16.44.52.51.69.14,1.37.31,2.11.48l1.38.33a.49.49,0,0,1,.39.48h0a.49.49,0,0,1-.38.47"/><path d="M17,5.28a.21.21,0,0,1-.19.1h-.11l-.08,0h0a.45.45,0,0,0-.25.07A.65.65,0,0,0,16,6a1.35,1.35,0,0,0,0,.28A1.29,1.29,0,0,0,16.6,7a1.62,1.62,0,0,0,.79.23,1.48,1.48,0,0,0,1.13-.52A1.84,1.84,0,0,0,19,5.84a1.87,1.87,0,0,0,0-.32,2.45,2.45,0,0,0-.77-1.79A2.37,2.37,0,0,0,17,3l-.67-.05a3.55,3.55,0,0,0-1.49.33,4.19,4.19,0,0,0-1.49,1.11,5.6,5.6,0,0,0-.69,1,4.34,4.34,0,0,1,.64.54,3.55,3.55,0,0,1,.91,2.39,4.14,4.14,0,0,1-.65,2.23,5.34,5.34,0,0,1-.41.53l.07.08a3.45,3.45,0,0,0,1.93,1.07,2.77,2.77,0,0,0,.49,0,3.23,3.23,0,0,0,1.06-.18,3.11,3.11,0,0,0,1.3-.84A3.26,3.26,0,0,0,18.85,9a4,4,0,0,0-.07-.68c-.05-.23-.15-.35-.31-.35s-.26.1-.44.3a1.64,1.64,0,0,1-.82.5,3,3,0,0,1-.52.07,1.46,1.46,0,0,1-.82-.25,1.44,1.44,0,0,1-.6-.86,3.85,3.85,0,0,1-.1-.8,3.08,3.08,0,0,1,.39-1.53,1.44,1.44,0,0,1,.64-.63.85.85,0,0,1,.38-.09.47.47,0,0,1,.34.13A.24.24,0,0,1,17,5v.1A.43.43,0,0,1,17,5.28Zm-4,.9a3.3,3.3,0,0,0-.52-.45,1.78,1.78,0,0,0-.14.36,1.21,1.21,0,0,0-.08.25A6.76,6.76,0,0,0,12,8a4.56,4.56,0,0,0,.66,2.45,3.62,3.62,0,0,0,.22.32,4.59,4.59,0,0,0,.33-.44,3.78,3.78,0,0,0,.59-2A3.11,3.11,0,0,0,13,6.18Z"/><path d="M22.4,10.86a3.13,3.13,0,0,1-.1-.38A22.78,22.78,0,0,1,22,7.12a23.12,23.12,0,0,1,.2-2.92c.06-.45.09-.72.09-.82s-.09-.23-.27-.23L19.7,3.07c-.28,0-.43.08-.44.22a1.72,1.72,0,0,0,0,.27,2.58,2.58,0,0,0,.07.6,1.67,1.67,0,0,1,.06.29,24.06,24.06,0,0,1,.19,3.06,23.3,23.3,0,0,1-.19,3,2.87,2.87,0,0,1-.07.33,6.29,6.29,0,0,0-.17.89v.13c0,.19.07.3.21.31h.18l1.4-.08.4,0h.46a1.35,1.35,0,0,0,.57-.09.5.5,0,0,0,.2-.46A3,3,0,0,0,22.4,10.86Z"/><path d="M30.23,11.29A19.06,19.06,0,0,1,29.74,7,20.07,20.07,0,0,1,30,3.9a.85.85,0,0,0,0-.23,1.65,1.65,0,0,0,0-.21.36.36,0,0,0-.41-.33L27.27,3l-.15,0A.27.27,0,0,0,27,3.2a.72.72,0,0,0,0,.13.88.88,0,0,0,0,.16,23.61,23.61,0,0,1,.3,3.75v.33a19.54,19.54,0,0,1-1.26-4,.55.55,0,0,0-.16-.35.5.5,0,0,0-.27-.07c-.14,0-.33,0-.57-.07a9.3,9.3,0,0,0-1.36-.14,1.18,1.18,0,0,0-.7.17,1,1,0,0,0-.17.65A8.35,8.35,0,0,0,23,5.09a18.76,18.76,0,0,1,.14,2.69,22.51,22.51,0,0,1-.3,3.82.77.77,0,0,0,0,.15c0,.2.09.3.26.3l2.87-.17c.14,0,.22-.08.22-.24a1,1,0,0,0,0-.16,20.82,20.82,0,0,1-.48-3.05V8.36c0-.18.06-.29.16-.33h.06c.11,0,.21.1.29.28a9.47,9.47,0,0,1,.9,3.43.39.39,0,0,0,.11.28l.13,0,2.53-.13a1.11,1.11,0,0,0,.31,0c.09,0,.14-.11.14-.17a1,1,0,0,0,0-.14A1.15,1.15,0,0,0,30.23,11.29Z"/><path d="M37.17,3.47A.44.44,0,0,0,37,3.12,11.43,11.43,0,0,0,34.94,3c-1.21,0-2.41,0-3.61.13a1,1,0,0,0-.53.15.58.58,0,0,0-.24.44,8.91,8.91,0,0,0-.07,1v.32c0,.62,0,1.25,0,1.87a.3.3,0,0,0,0,.18.14.14,0,0,0,.1,0,.37.37,0,0,0,.17,0A.64.64,0,0,0,31,7a7.38,7.38,0,0,1,1.17-1.39.34.34,0,0,1,.24-.13.16.16,0,0,1,.17.12,8.87,8.87,0,0,1,0,1.22,21.45,21.45,0,0,1-.58,5A1.52,1.52,0,0,0,32,12c0,.14.09.22.28.22h.55l.74,0,1.06,0a1.81,1.81,0,0,0,.65-.08.3.3,0,0,0,.11-.26.5.5,0,0,0,0-.17A21.43,21.43,0,0,1,35,7.3c0-.59,0-1.19.07-1.78,0-.23.11-.35.26-.35s.1,0,.17.11A7.93,7.93,0,0,1,36.73,7c.08.17.18.25.3.25a.16.16,0,0,0,.17-.13c0-.1,0-.5,0-1.21S37.2,4.28,37.17,3.47Z"/><path d="M40.71,10.86c0-.15-.07-.28-.09-.38a22.78,22.78,0,0,1-.26-3.36,25.06,25.06,0,0,1,.19-2.92c.06-.45.09-.72.09-.82s-.09-.23-.26-.23L38,3.07c-.29,0-.44.08-.45.22s0,.23,0,.27a2.61,2.61,0,0,0,.08.6c0,.1,0,.2,0,.29a24.07,24.07,0,0,1,.2,3.06,23.28,23.28,0,0,1-.2,3,2.38,2.38,0,0,1-.06.33,5.09,5.09,0,0,0-.17.89v.13c0,.19.07.3.21.31h.18l1.4-.08.39,0h.47a1.35,1.35,0,0,0,.57-.09.5.5,0,0,0,.2-.46A3.11,3.11,0,0,0,40.71,10.86Z"/><path d="M47.36,11.41q-.06-.45-.15-1.62s0-.17,0-.35S47.06,9,46.92,9a.51.51,0,0,0-.25.12,2.21,2.21,0,0,1-1.27.6,1.35,1.35,0,0,1-.47-.09,1.52,1.52,0,0,1-.79-1.25A8.42,8.42,0,0,1,44,7.05a6.91,6.91,0,0,1,.08-1.11,18.38,18.38,0,0,1,.5-2.43.68.68,0,0,0,0-.14.18.18,0,0,0-.09-.18s-.5,0-1.37-.09L41.71,3a1,1,0,0,0-.26,0q-.24.06-.24.48a2.37,2.37,0,0,0,.08.57c0,.11.05.21.07.31a20.48,20.48,0,0,1-.24,7.31,1.1,1.1,0,0,0,0,.18.26.26,0,0,0,.11.23.32.32,0,0,0,.14,0h.14L47,12.05a.3.3,0,0,0,.32-.2,1.11,1.11,0,0,0,0-.19A1.69,1.69,0,0,0,47.36,11.41Z"/><path d="M53.88,11.41q-.06-.45-.15-1.62s0-.17,0-.35,0-.09,0-.12c0-.22-.13-.32-.25-.32h0c-.11.32-.22.64-.34,1a2.52,2.52,0,0,0-.25,1,1,1,0,0,0,.59.9,2,2,0,0,0,.36.17.28.28,0,0,0,.12-.16.58.58,0,0,0,0-.19A1.69,1.69,0,0,0,53.88,11.41Zm-1.45-.47a3.1,3.1,0,0,1,.27-1.12c.06-.16.12-.31.17-.47a1.74,1.74,0,0,1-.95.37,1.31,1.31,0,0,1-.47-.09,1.5,1.5,0,0,1-.79-1.25,7.39,7.39,0,0,1-.12-1.33,8.29,8.29,0,0,1,.08-1.11,18.38,18.38,0,0,1,.5-2.43.34.34,0,0,0,0-.14.18.18,0,0,0-.09-.18s-.5,0-1.36-.09L48.23,3A1.12,1.12,0,0,0,48,3c-.16,0-.23.2-.23.48a2,2,0,0,0,.08.57,1.88,1.88,0,0,1,.06.31,20.2,20.2,0,0,1,.23,3,20.32,20.32,0,0,1-.47,4.31,1.09,1.09,0,0,0,0,.18.24.24,0,0,0,.11.23.28.28,0,0,0,.13,0H48l5-.08A1.3,1.3,0,0,1,52.43,10.94Z"/><path d="M10.22,6.94l-1.55.39-.8.2c-.41.1-.82.2-1.23.28a.87.87,0,0,0-.79.78c-.12.54-.24,1.07-.37,1.62,0,.11-.05.22-.08.33-.1.43-.21.86-.31,1.3-.36-.19-.29-.54-.36-.79-.23-.79-.42-1.6-.58-2.41a.88.88,0,0,0-.81-.84A25.47,25.47,0,0,1,0,6.89c1.1-.26,2.19-.54,3.29-.76a1,1,0,0,0,.87-.87c.22-1.09.51-2.17.78-3.26h.13l.15.58h0c0,.11.06.23.08.34.19.76.38,1.53.53,2.29a1,1,0,0,0,.91.9C7.84,6.36,8.92,6.64,10.22,6.94Z"/><path d="M6.74,6.13a1,1,0,0,1-.91-.9c-.15-.76-.34-1.53-.53-2.29,0-.11,0-.23-.08-.34h0L5.07,2H4.94c-.27,1.09-.56,2.17-.78,3.26a1,1,0,0,1-.87.87c-1.1.22-2.19.5-3.29.76a25.47,25.47,0,0,0,3.34.91.88.88,0,0,1,.81.84c.16.81.35,1.62.58,2.41.07.25,0,.6.36.79.1-.44.21-.87.31-1.3,0-.11,0-.22.08-.33.13-.55.25-1.08.37-1.62a.87.87,0,0,1,.79-.78c.41-.08.82-.18,1.23-.28l.8-.2,1.55-.39C8.92,6.64,7.84,6.36,6.74,6.13Zm1,.92-1.19.27A1.37,1.37,0,0,0,5.36,8.48L5,10.08v0c-.12-.49-.24-1-.35-1.55a1.36,1.36,0,0,0-1.2-1.24c-.51-.1-1-.22-1.54-.36.49-.12,1-.23,1.49-.33A1.44,1.44,0,0,0,4.65,5.36c.1-.52.22-1,.35-1.55.12.51.24,1,.34,1.52a1.49,1.49,0,0,0,1.3,1.29L8.12,7Z"/></g></g></svg>