<?xml version="1.0" encoding="utf-8"?>
<!-- Generator: Adobe Illustrator 25.0.0, SVG Export Plug-In . SVG Version: 6.00 Build 0)  -->
<svg version="1.1" id="Camada_1" xmlns="http://www.w3.org/2000/svg" xmlns:xlink="http://www.w3.org/1999/xlink" x="0px" y="0px"
	 viewBox="0 0 19.3 17.5" style="enable-background:new 0 0 19.3 17.5;" xml:space="preserve">
<style type="text/css">
	.st0{fill:#6C6393;}
</style>
<g id="Camada_1-2">
	<path class="st0" d="M14.5,10.4L13,10.8c0.2,0.2,0.5,0.4,0.6,0.6c0.2,0.3,0.3,0.6,0.3,0.9c0,0.2-0.1,0.4-0.1,0.6
		c-0.2,0.3-0.5,0.5-0.9,0.5c-0.4,0-0.7-0.2-0.8-0.6c0-0.1-0.1-0.2-0.1-0.3c0-0.2,0.1-0.4,0.2-0.5c0.2-0.2,0.2-0.4,0.3-0.6
		c0-0.1,0-0.2-0.1-0.2c-0.1-0.1-0.2-0.2-0.3-0.2l-1,0.2c-0.6,0.1-1.2,0.3-1.7,0.4c-0.4,0.1-0.5,0.2-0.6,0.6
		c-0.2,0.8-0.3,1.5-0.5,2.3l-0.2,1c0.3,0.4,0.7,0.7,1.2,1c1.1,0.7,2.3,1,3.6,1c0.5,0,1,0,1.4-0.1c1.4-0.3,2.8-1.1,3.7-2.2
		c0.2-0.2,0.3-0.4,0.5-0.6c0.5-0.9,0.8-1.8,0.8-2.8c0-1.1-0.4-2.2-1.1-3C18,8.4,17.7,8.2,17.5,8c-0.6-0.4-1.2-0.8-1.9-1L15,6.8
		c-2-0.6-3-1.5-3-2.6c0-0.4,0.1-0.7,0.4-1c0.3-0.3,0.6-0.4,1-0.4c0.4,0,0.7,0.2,0.9,0.5c0,0.1,0.1,0.2,0.1,0.2
		c0,0.2-0.1,0.4-0.3,0.5c-0.4,0.2-0.6,0.4-0.6,0.6s0.2,0.6,0.7,0.8c0.4,0.2,0.7,0.4,1.1,0.6c0.3,0.1,0.7,0.2,1,0.2h0.2
		c0.5-0.1,1-0.3,1.4-0.7c0.4-0.3,0.7-0.8,0.8-1.3c0.1-0.2,0.1-0.3,0.1-0.5c0-1-0.4-1.9-1.2-2.5c-0.9-0.8-2.1-1.2-3.3-1.3
		c-0.3,0-0.5,0-0.8,0c-0.8,0-1.7,0.1-2.5,0.4C10,0.7,9.1,1.2,8.3,2C8.1,2.2,8,2.4,7.8,2.7L8,3.5c0,0,0,0,0,0.1C8,3.7,8.1,3.8,8.1,4
		c0.3,1,0.5,2.1,0.7,3.2C9,7.7,9.1,7.8,9.6,7.9c1,0.2,1.9,0.4,2.9,0.7c0.6,0.1,1.2,0.3,1.9,0.5C14.8,9.1,15,9.4,15,9.7l0,0l0,0
		C15,10,14.8,10.3,14.5,10.4"/>
	<path class="st0" d="M14.3,9.7c-0.8,0.2-1.5,0.4-2.2,0.5c-0.4,0.1-0.8,0.2-1.1,0.3c-0.6,0.1-1.1,0.3-1.7,0.4c-0.6,0-1,0.5-1.1,1.1
		c-0.2,0.8-0.3,1.5-0.5,2.3c0,0.1-0.1,0.3-0.1,0.5c-0.1,0.6-0.3,1.2-0.4,1.8c-0.5-0.3-0.4-0.8-0.5-1.1c-0.3-1.1-0.6-2.2-0.8-3.4
		c0-0.6-0.5-1.1-1.1-1.2C3.1,10.6,1.5,10.2,0,9.7c1.5-0.4,3.1-0.8,4.6-1.1C5.3,8.5,5.8,8,5.8,7.4c0.3-1.5,0.7-3,1.1-4.6h0.2l0.2,0.8
		l0,0c0,0.2,0.1,0.3,0.1,0.5C7.7,5.2,8,6.2,8.2,7.3C8.2,8,8.8,8.5,9.4,8.6C11,8.9,12.5,9.3,14.3,9.7z"/>
	<path class="st0" d="M9.4,8.6C8.8,8.5,8.2,8,8.2,7.3C8,6.3,7.7,5.2,7.4,4.1c0-0.2-0.1-0.3-0.1-0.5l0,0L7.1,2.8H6.9
		c-0.4,1.5-0.8,3-1.1,4.6C5.8,8,5.2,8.5,4.6,8.6C3.1,8.9,1.5,9.3,0,9.7c1.5,0.5,3.1,1,4.7,1.3c0.6,0.1,1.1,0.6,1.1,1.2
		c0.2,1.1,0.5,2.3,0.8,3.4c0.1,0.4,0,0.8,0.5,1.1c0.1-0.6,0.3-1.2,0.4-1.8c0-0.1,0.1-0.3,0.1-0.5C7.9,13.5,8,12.8,8.2,12
		c0.1-0.6,0.5-1,1.1-1c0.6-0.1,1.1-0.3,1.7-0.4c0.4-0.1,0.7-0.2,1.1-0.3c0.7-0.2,1.4-0.4,2.2-0.5C12.5,9.3,11,8.9,9.4,8.6z
		 M10.8,9.9c-0.6,0.1-1.1,0.3-1.7,0.4c-0.9,0.1-1.5,0.8-1.7,1.6c-0.2,0.8-0.3,1.5-0.5,2.2l0,0c-0.2-0.7-0.3-1.4-0.5-2.2
		c-0.1-0.9-0.8-1.6-1.7-1.7c-0.7-0.1-1.4-0.3-2.2-0.5c0.7-0.2,1.4-0.3,2.1-0.5c0.9-0.1,1.7-0.8,1.8-1.8C6.7,6.8,6.8,6.1,7,5.3
		c0.2,0.7,0.3,1.4,0.5,2.1c0.1,1,0.9,1.7,1.8,1.8c0.7,0.1,1.4,0.3,2.1,0.5C11.2,9.8,11,9.8,10.8,9.9z"/>
</g>
</svg>
