<?xml version="1.0" encoding="utf-8"?>
<!-- Generator: Adobe Illustrator 25.0.0, SVG Export Plug-In . SVG Version: 6.00 Build 0)  -->
<svg version="1.1" id="Camada_1" xmlns="http://www.w3.org/2000/svg" xmlns:xlink="http://www.w3.org/1999/xlink" x="0px" y="0px"
	 viewBox="0 0 65.3 93.8" style="enable-background:new 0 0 65.3 93.8;" xml:space="preserve">
<style type="text/css">
	.st0{fill:#6C6393;stroke:#6C6393;stroke-miterlimit:10;}
</style>
<path class="st0" d="M62.8,55.8c1.7,7.2-1.1,14.8-7,19.2c-0.1,0-0.1,0.1-0.2,0.1c-1.8,1.3-3.7,2.4-5.7,3.4l-0.4,0.2
	c-9.3,3.8-19.7,3.7-29-0.2C15.1,76,10.5,72.2,7,67.4c-1.6-2.3-2.9-4.8-3.8-7.4c-9.8-24,8.9-45.9,30.2-47.7
	c11.9-0.6,23.3,4.9,30.2,14.7c0.2,0.2,0.3,0.5,0.4,0.7c0.4,0.9,0.7,1.8,0.8,2.8c0.2,2.9-1.4,5.5-4,6.7l0,0c-1.1,0.4-2.2,0.5-3.4,0.6
	c-5.6-0.1-7.3-6.8-12.2-8.8c-3.1-1.9-6.7-2.8-10.4-2.7h-0.3c-10.5,0-19.4,7.7-20.9,18.1c-3.6,7.7-15.2,11.5,1.2,15.4
	c1.6,0.5,3,1.3,4.4,2.2c2.2,2.4,5,4.2,8.1,5.3h0.1c1.4,0.6,2.9,1,4.5,1.1c0.2,0,0.4,0,0.5,0c3.1,0.6,6.2,0.3,9.1-1
	c5.8-2.5,9.2-8.3,2-13.2c-2.1-1-4.4-1.6-6.7-1.8c-0.7-0.1-1.4-0.1-2.1-0.1c-1.4,0-2.7,0.1-4.1,0.4c-3.4,0.6-6.7-1.3-7.8-4.5
	c-0.2-0.5-0.3-1-0.3-1.5c0-0.2-0.1-0.5,0-0.7c0-2.9,1.9-5.6,4.7-6.5c3.2-0.8,6.4-1.1,9.7-1c0.5,0,1,0,1.5,0.1l1.3,0.1
	c0.4,0,0.9,0.1,1.3,0.2s0.9,0.1,1.4,0.2c3.7,0.7,7.3,2.1,10.5,4c3.8,2.4,7,5.8,9,9.8C62.1,53.8,62.5,54.8,62.8,55.8
	C62.8,55.8,62.8,55.8,62.8,55.8z"/>
</svg>
